<svg id="Layer_1" data-name="Layer 1" xmlns="http://www.w3.org/2000/svg" width="680.24" height="733.43" viewBox="0 0 680.24 733.43"><defs><style>.cls-1{opacity:0.25;}.cls-2,.cls-3{fill:#4d4d4d;}.cls-3,.cls-4,.cls-5{stroke:#4d4d4d;}.cls-3,.cls-4,.cls-5,.cls-6{stroke-miterlimit:10;}.cls-4{fill:#fff;}.cls-4,.cls-5{stroke-width:4px;}.cls-5{fill:none;}.cls-6{fill:#c74900;stroke:#c74900;stroke-width:2px;}</style></defs><g class="cls-1"><rect class="cls-2" x="611.53" y="128.5" width="21" height="21" rx="10.5"/><rect class="cls-2" x="632.53" y="103.5" width="21" height="21" rx="10.5"/><rect class="cls-2" x="576.53" y="7.5" width="21" height="21" rx="10.5"/><rect class="cls-3" x="653.53" y="76.5" width="21" height="21" rx="10.5"/><rect class="cls-4" x="237.54" y="233.15" width="399.11" height="73.37" transform="translate(-52.99 423.72) rotate(-49.12)"/><path class="cls-4" d="M486,309s80,109-38,169c0,0-72.39,14.31-82.69,118.16C365.34,596.16,316,791,156,713S2,487,2,487,13,364,173,344c0,0,44.35,3.3,77.72-79,2.23-5.49-.72,0,6.51-17.64,7.77-10.38,5.24-8.46,15.36-18.08C303,200.46,377.28,161.25,486,309Z"/><rect class="cls-2" x="526.53" y="54.5" width="21" height="21" rx="10.5"/><rect class="cls-2" x="551.53" y="29.5" width="21" height="21" rx="10.5"/><rect class="cls-5" x="162.53" y="454.5" width="26" height="224" rx="10.56" transform="translate(-349.17 290.04) rotate(-45)"/><circle class="cls-5" cx="325.03" cy="388" r="70.5"/><path class="cls-4" d="M514,129l15-51L607,2s62.21-1,71.11,63.5L611,149l-45,23Z"/><line class="cls-6" x1="150.53" y1="549.5" x2="602.53" y2="48.5"/><line class="cls-6" x1="158.53" y1="557.5" x2="610.53" y2="56.5"/><line class="cls-6" x1="165.53" y1="564.5" x2="617.53" y2="63.5"/><line class="cls-6" x1="173.53" y1="570.5" x2="625.53" y2="69.5"/><line class="cls-6" x1="181.53" y1="578.5" x2="633.53" y2="77.5"/></g></svg>